# xmcd
#
# Track frame offsets:
#	150
#	20550
#	41297
#	78394
#	104288
#	120201
#	137928
#
# Disc length: 2134 seconds
#
# Revision: 6
# Processed by: cddbd v1.5.2PL0 Copyright (c) Steve Scherf et al.
# Submitted via: audiograbber 1.83.01
#
DISCID=4e085407
DTITLE=Foghat - The Complete Bearsville Albums Collection [CD 05) - Fool For Th
DTITLE=e City [remastered 2016]
DYEAR=1975
DGENRE=Rock
TTITLE0=Fool For The City
TTITLE1=My Babe
TTITLE2=Slow Ride
TTITLE3=Terraplane Blues
TTITLE4=Save Your Loving (For Me)
TTITLE5=Drive Me Home
TTITLE6=Take It Or Leave It
EXTD=
EXTT0=
EXTT1=
EXTT2=
EXTT3=
EXTT4=
EXTT5=
EXTT6=
PLAYORDER=
